<?xml version="1.0" encoding="UTF-8" standalone="no"?>
<!DOCTYPE svg PUBLIC "-//W3C//DTD SVG 1.1//EN" "http://www.w3.org/Graphics/SVG/1.1/DTD/svg11.dtd">
<!-- Создано Microsoft Visio, экспорт SVG Server.svg Page-1 -->
<svg xmlns="http://www.w3.org/2000/svg" xmlns:xlink="http://www.w3.org/1999/xlink" xmlns:ev="http://www.w3.org/2001/xml-events"
		width="54.874in" height="56.4646in" viewBox="0 0 3950.93 4065.45" xml:space="preserve" color-interpolation-filters="sRGB"
		class="st4">
	<style type="text/css">
	<![CDATA[
		.bg {fill:#00b050;stroke:#000000;stroke-linecap:round;stroke-linejoin:round;stroke-width:0.75}
		.st2 {fill:#00b050;stroke:#000000;stroke-linecap:round;stroke-linejoin:round;stroke-width:0.75}
		.st3 {fill:#cafff8;stroke:#000000;stroke-linecap:round;stroke-linejoin:round;stroke-width:0.75}
		.st4 {fill:none;fill-rule:evenodd;font-size:12px;overflow:visible;stroke-linecap:square;stroke-miterlimit:3}
	]]>
	</style>

	<g>
		<title>Страница-1</title>
		<g id="group15-1" transform="translate(18,-19.3323)">
			<title>Большая ЭВМ</title>
			<g id="shape16-2" transform="translate(313.873,4.54747E-13)">
				<title>Лист.16</title>
				<path d="M0 4065.45 L3287.18 4065.45 L3287.18 37.33 L0 37.33 L0 4065.45 Z" class="bg"/>
				<path d="M0 4065.45 L3287.18 4065.45 L3287.18 37.33 L0 37.33 L0 4065.45" class="bg"/>
				<path d="M1643.59 4065.45 L1643.59 37.33" class="st2"/>
			</g>
			<g id="shape17-6" transform="translate(639.318,-292.468)">
				<title>Лист.17</title>
				<path d="M1994.02 1572.72 L2719.94 1572.72 L2719.94 717.84 L1994.02 717.84 L1994.02 1572.72 ZM822.32 1064.17 L921.44
							 1064.17 L921.44 699.67 L822.32 699.67 L822.32 1064.17 ZM822.32 1589.21 L921.44 1589.21 L921.44 1224.71
							 L822.32 1224.71 L822.32 1589.21 ZM587.37 1064.17 L686.49 1064.17 L686.49 699.67 L587.37 699.67 L587.37
							 1064.17 ZM587.37 1589.21 L686.49 1589.21 L686.49 1224.71 L587.37 1224.71 L587.37 1589.21 ZM234.95 1064.17
							 L334.07 1064.17 L334.07 699.67 L234.95 699.67 L234.95 1064.17 ZM234.95 1589.21 L334.07 1589.21 L334.07
							 1224.71 L234.95 1224.71 L234.95 1589.21 ZM0 1064.17 L99.12 1064.17 L99.12 699.67 L0 699.67 L0 1064.17
							 ZM0 1589.21 L99.12 1589.21 L99.12 1224.71 L0 1224.71 L0 1589.21 ZM1868.59 3563.55 L1868.48 3634.58 L2728.51
							 3634.42 L2728.51 3563.35 L1868.59 3563.55 ZM1868.59 3778.94 L1868.48 3850.1 L2728.51 3849.98 L2728.51
							 3779.02 L1868.59 3778.94 ZM1868.59 3994.46 L1868.48 4065.45 L2728.51 4065.37 L2728.51 3994.38 L1868.59
							 3994.46 ZM163.29 3634.58 L1023.01 3634.58 L1023.01 3563.55 L163.06 3563.61 L163.29 3634.58 ZM163.29
							 3850.1 L1023.01 3850.1 L1023.01 3778.94 L163.06 3779.02 L163.29 3850.1 ZM163.29 4065.45 L1023.01 4065.45
							 L1023.01 3994.46 L163.06 3994.38 L163.29 4065.45 Z" class="st3"/>
			</g>
			<g id="shape18-9" transform="translate(2711.46,-2865.13)">
				<title>Лист.18</title>
				<path d="M450.4 3412.82 A61.361 63.1351 -180 1 0 565.56 3456.47 A61.361 63.1351 -180 1 0 450.4 3412.82 ZM451.24 3599.73
							 A61.361 63.1351 -180 1 0 564.72 3647.8 A61.361 63.1351 -180 1 0 451.24 3599.73 ZM451.77 3787.56 A61.361
							 63.1351 -180 1 0 564.2 3838.17 A61.361 63.1351 -180 1 0 451.77 3787.56 ZM451.77 3976.65 A61.361 63.1351
							 -180 1 0 564.2 4027.26 A61.361 63.1351 -180 1 0 451.77 3976.65 ZM226.25 3415.63 A61.361 63.1351 -180
							 1 0 343.27 3453.65 A61.361 63.1351 -180 1 0 226.25 3415.63 ZM226.9 3602.75 A61.361 63.1351 -180 1 0
							 342.62 3644.78 A61.361 63.1351 -180 1 0 226.9 3602.75 ZM227.31 3790.7 A61.361 63.1351 -180 1 0 342.21
							 3835.04 A61.361 63.1351 -180 1 0 227.31 3790.7 ZM227.31 3979.78 A61.361 63.1351 -180 1 0 342.21 4024.12
							 A61.361 63.1351 -180 1 0 227.31 3979.78 ZM2.12 3418.56 A61.4002 63.1754 -180 1 0 120.88 3450.72 A61.4002
							 63.1754 -180 1 0 2.12 3418.56 ZM2.59 3605.94 A61.4002 63.1754 -180 1 0 120.4 3641.59 A61.4002 63.1754
							 -180 1 0 2.59 3605.94 ZM2.89 3794.02 A61.4002 63.1754 -180 1 0 120.1 3831.71 A61.4002 63.1754 -180 1
							 0 2.89 3794.02 ZM2.89 3983.11 A61.4002 63.1754 -180 1 0 120.1 4020.79 A61.4002 63.1754 -180 1 0 2.89
							 3983.11 Z" class="bg"/>
			</g>
		</g>
	</g>
</svg>
